<svg id="svg" version="1.1" width="400" height="328.6021505376344" viewBox="0 0 400 328.6021505376344" xmlns="http://www.w3.org/2000/svg" xmlns:xlink="http://www.w3.org/1999/xlink"><g id="svgg"><path id="path0" d="M15.742 6.106 C 11.137 6.977,7.504 10.381,6.651 14.624 C 6.366 16.042,6.399 38.135,6.696 44.731 C 7.993 73.536,12.566 101.149,20.045 125.333 C 20.367 126.374,20.870 128.115,21.164 129.201 C 21.481 130.374,22.142 132.121,22.791 133.502 C 23.393 134.781,24.323 136.989,24.859 138.409 C 28.831 148.927,34.802 161.012,39.437 167.914 C 47.400 179.770,50.104 183.021,59.494 192.026 C 65.379 197.670,65.740 197.968,66.461 197.787 C 67.595 197.503,67.596 197.671,66.405 188.045 C 65.709 182.410,65.369 179.101,65.446 178.692 C 65.807 176.771,68.834 175.498,70.141 176.717 C 71.076 177.590,71.192 178.090,73.122 189.615 C 75.589 204.343,75.718 204.849,80.005 216.459 C 88.961 240.720,100.352 260.345,116.186 278.796 C 135.754 301.598,155.404 314.141,180.473 319.831 C 188.345 321.617,191.425 321.892,203.548 321.892 L 213.563 321.892 220.159 320.597 L 226.754 319.302 234.108 316.618 C 253.885 309.398,267.624 299.285,284.795 279.308 C 311.039 248.775,327.420 214.477,330.232 184.172 C 330.605 180.151,331.048 179.216,332.788 178.778 C 336.058 177.955,336.566 179.555,335.885 188.543 C 335.604 192.255,335.694 195.880,336.076 196.262 C 336.138 196.324,339.339 193.172,343.191 189.257 L 350.194 182.141 353.190 177.823 C 354.839 175.448,357.590 171.647,359.305 169.376 C 364.212 162.879,368.853 153.759,375.765 137.032 C 378.001 131.624,384.737 108.866,386.640 100.293 C 388.750 90.787,389.647 84.165,391.903 61.419 L 393.277 47.570 393.394 31.312 C 393.485 18.676,393.463 14.824,393.298 14.022 C 392.400 9.672,388.194 6.525,382.710 6.097 C 375.861 5.562,344.947 8.460,333.763 10.685 C 311.957 15.023,289.905 22.532,270.538 32.214 C 251.611 41.676,222.505 60.172,212.735 68.945 C 205.185 75.726,204.781 75.902,197.760 75.462 L 195.347 75.311 186.405 68.262 C 179.813 63.067,177.102 61.032,176.090 60.521 C 175.187 60.065,174.245 59.389,173.340 58.548 C 171.995 57.299,169.642 55.609,167.398 54.279 C 166.783 53.915,164.538 52.482,162.409 51.094 C 160.280 49.707,156.680 47.464,154.409 46.110 C 152.138 44.756,147.609 42.044,144.344 40.084 C 135.099 34.532,135.046 34.506,117.773 27.182 L 106.065 22.218 95.398 18.691 C 83.220 14.665,80.058 13.802,69.181 11.530 C 57.635 9.118,53.491 8.420,45.763 7.585 C 38.627 6.815,33.138 6.481,18.925 5.952 C 17.691 5.906,16.493 5.964,15.742 6.106 M374.996 32.011 C 377.267 33.108,378.535 34.846,379.773 38.559 C 383.391 49.415,381.226 65.479,372.362 93.569 C 365.662 114.801,353.269 140.011,342.454 154.409 C 337.435 161.092,331.713 166.840,329.247 167.677 C 325.611 168.911,323.794 167.755,321.186 162.545 L 319.485 159.146 317.423 151.389 C 310.583 125.669,299.388 109.326,281.194 98.501 C 277.017 96.016,276.544 95.685,275.295 94.370 C 269.834 88.621,272.849 81.212,284.407 71.979 C 296.515 62.306,309.027 55.283,331.993 45.268 C 348.202 38.200,353.010 36.371,362.557 33.639 C 370.588 31.341,372.965 31.030,374.996 32.011 M35.070 32.513 C 40.998 33.729,58.910 40.400,76.559 47.963 C 83.286 50.846,102.923 60.983,108.129 64.261 C 112.795 67.199,116.973 70.321,121.747 74.437 C 132.056 83.326,133.569 92.240,125.566 96.928 C 103.602 109.792,91.727 126.623,85.253 154.065 C 83.410 161.879,82.439 164.160,79.971 166.476 C 75.861 170.332,72.842 168.892,64.531 159.109 L 59.514 153.204 55.620 146.925 C 44.041 128.252,31.896 100.117,26.840 80.252 C 23.577 67.432,22.149 58.366,22.138 50.409 C 22.117 35.641,25.759 30.602,35.070 32.513 M293.121 215.642 C 295.224 216.807,296.009 219.623,294.803 221.680 C 293.859 223.291,292.779 223.765,289.517 224.001 C 269.344 225.461,255.387 229.823,241.720 238.938 L 238.710 240.946 237.419 240.940 C 233.740 240.923,231.473 237.591,233.034 234.494 C 234.775 231.042,247.771 223.915,258.884 220.319 C 270.651 216.512,289.936 213.877,293.121 215.642 M119.295 216.771 C 137.129 218.611,152.020 223.522,163.950 231.498 C 168.744 234.702,169.361 235.359,169.361 237.249 C 169.361 240.331,167.498 241.986,164.043 241.971 L 162.323 241.964 160.435 240.538 C 149.745 232.462,134.416 227.286,116.301 225.636 C 114.645 225.485,112.546 225.294,111.635 225.212 C 107.452 224.831,105.441 221.864,107.141 218.581 C 108.412 216.124,110.298 215.843,119.295 216.771 M203.717 235.434 C 209.964 236.376,212.386 239.999,210.508 245.591 C 208.260 252.283,202.276 255.076,196.590 252.088 C 191.252 249.283,188.915 241.124,192.516 237.870 C 194.812 235.796,199.440 234.789,203.717 235.434 M185.594 257.303 C 190.027 258.709,191.788 259.452,194.459 261.045 C 199.998 264.347,201.146 264.283,209.290 260.216 C 218.610 255.563,220.858 255.282,221.782 258.660 C 222.337 260.688,221.225 261.700,216.427 263.533 C 211.531 265.403,209.298 266.656,206.116 269.316 C 202.100 272.672,199.973 272.710,196.217 269.493 C 192.914 266.663,190.506 265.395,184.936 263.554 C 181.125 262.295,180.140 261.884,179.468 261.271 C 177.893 259.836,178.414 257.340,180.474 256.446 C 181.418 256.037,181.804 256.101,185.594 257.303 M146.959 259.634 C 151.879 260.677,153.509 267.485,149.686 271.016 C 146.825 273.659,141.889 272.700,140.388 269.211 C 138.136 263.977,141.858 258.553,146.959 259.634 M257.895 259.783 C 261.529 260.792,263.397 265.196,261.716 268.789 C 259.329 273.889,253.304 273.906,250.900 268.818 C 248.586 263.919,252.869 258.386,257.895 259.783 " stroke="none" fill="#fbecdd" fill-rule="evenodd"></path><path id="path1" d="M287.914 215.173 C 267.098 216.551,249.634 222.069,236.167 231.525 C 231.736 234.636,231.330 238.379,235.209 240.357 C 237.271 241.409,238.156 241.193,241.837 238.737 C 255.273 229.771,270.351 225.087,289.548 223.915 C 293.653 223.665,295.379 222.244,295.189 219.274 C 294.976 215.960,292.984 214.837,287.914 215.173 M110.008 216.411 C 106.852 217.220,105.588 221.406,107.812 223.684 C 108.825 224.721,109.775 224.982,113.669 225.293 C 133.834 226.904,149.041 231.879,160.925 240.752 L 162.453 241.892 163.936 241.892 C 167.257 241.889,169.021 240.500,169.245 237.710 C 169.409 235.662,169.079 235.220,165.483 232.671 C 153.052 223.858,136.344 218.299,117.505 216.706 C 113.372 216.357,110.638 216.249,110.008 216.411 M197.935 235.600 C 192.990 236.562,190.918 238.598,190.916 242.495 C 190.912 249.428,197.830 254.839,203.991 252.720 C 209.993 250.654,213.289 241.319,209.266 237.778 C 207.045 235.823,201.886 234.831,197.935 235.600 M180.215 256.666 C 178.058 258.006,178.038 260.448,180.174 261.674 C 180.670 261.958,182.740 262.737,184.774 263.404 C 190.377 265.242,193.195 266.720,196.215 269.406 C 199.733 272.536,202.235 272.581,205.677 269.577 C 208.669 266.967,211.136 265.539,215.914 263.653 C 220.447 261.864,220.917 261.594,221.521 260.439 C 222.332 258.886,220.958 256.344,219.307 256.344 C 217.992 256.344,213.920 257.959,209.098 260.392 C 201.675 264.138,199.664 264.318,195.269 261.627 C 192.723 260.069,192.102 259.743,190.305 259.021 C 185.164 256.955,181.229 256.036,180.215 256.666 " stroke="none" fill="#50382f" fill-rule="evenodd"></path><path id="path2" d="M371.269 31.569 C 365.443 32.501,353.309 36.254,344.628 39.810 C 323.145 48.609,305.335 57.436,294.448 64.681 C 279.144 74.866,272.805 81.841,272.781 88.524 C 272.772 90.943,273.378 92.352,275.295 94.370 C 276.544 95.685,277.017 96.016,281.194 98.501 C 299.388 109.326,310.583 125.669,317.423 151.389 L 319.485 159.146 321.186 162.545 C 323.794 167.755,325.611 168.911,329.247 167.677 C 331.713 166.840,337.435 161.092,342.454 154.409 C 353.269 140.011,365.662 114.801,372.362 93.569 C 381.226 65.479,383.391 49.415,379.773 38.559 C 377.954 33.100,375.305 30.923,371.269 31.569 M29.505 32.361 C 20.568 34.371,19.599 51.798,26.840 80.252 C 31.896 100.117,44.041 128.252,55.620 146.925 L 59.514 153.204 64.531 159.109 C 72.842 168.892,75.861 170.332,79.971 166.476 C 82.439 164.160,83.410 161.879,85.253 154.065 C 91.727 126.623,103.602 109.792,125.566 96.928 C 136.501 90.523,129.749 77.873,108.129 64.261 C 105.003 62.292,103.734 61.605,92.645 55.870 C 79.918 49.287,80.885 49.732,64.602 42.973 C 55.417 39.160,53.912 38.593,45.677 35.842 C 34.733 32.187,32.460 31.697,29.505 32.361 " stroke="none" fill="#fbc4c4" fill-rule="evenodd"></path><path id="path3" d="M369.963 0.176 C 330.739 1.703,287.802 14.274,252.301 34.624 C 237.358 43.190,216.190 57.596,206.538 65.769 C 202.514 69.176,202.275 69.307,199.791 69.477 L 197.952 69.603 196.736 68.809 C 196.067 68.373,194.476 67.047,193.201 65.863 C 186.184 59.350,174.022 50.939,149.985 35.977 C 145.993 33.492,123.490 22.699,115.999 19.677 C 81.301 5.676,54.627 0.185,22.280 0.384 C 10.933 0.453,10.615 0.506,7.076 2.909 C 0.630 7.287,-0.608 12.817,0.240 33.462 C 0.395 37.247,0.636 43.325,0.775 46.968 C 1.568 67.808,6.081 99.524,10.346 114.237 C 18.938 143.873,21.837 150.947,32.543 168.385 C 43.621 186.429,48.027 191.349,66.925 206.776 C 69.148 208.591,71.026 210.248,71.098 210.458 C 71.169 210.667,71.799 212.581,72.496 214.710 C 79.232 235.267,91.851 258.248,106.238 276.159 C 121.241 294.837,130.682 303.463,147.011 313.412 C 151.413 316.094,166.245 322.505,171.614 324.046 C 193.644 330.369,216.407 330.012,235.647 323.042 C 246.027 319.282,259.483 311.555,267.871 304.540 C 277.153 296.776,285.247 288.710,290.940 281.548 C 302.735 266.712,303.435 265.815,305.888 262.382 C 316.410 247.658,325.077 229.997,331.289 210.620 L 332.462 206.960 334.101 205.716 C 346.981 195.941,359.725 181.748,367.272 168.774 C 367.740 167.970,368.853 166.106,369.746 164.632 C 370.638 163.158,371.621 161.314,371.929 160.533 C 372.238 159.753,373.023 158.221,373.675 157.129 C 375.203 154.570,376.085 152.589,379.773 143.439 C 389.014 120.511,394.934 95.126,397.839 65.978 C 399.441 49.901,400.428 24.778,399.624 20.559 C 399.434 19.564,399.385 18.525,399.445 16.811 C 399.722 8.975,395.466 3.034,387.853 0.633 C 386.219 0.118,377.306 -0.110,369.963 0.176 M25.462 6.200 C 43.317 6.882,51.999 7.940,69.181 11.530 C 80.058 13.802,83.220 14.665,95.398 18.691 L 106.065 22.218 117.773 27.182 C 135.046 34.506,135.099 34.532,144.344 40.084 C 147.609 42.044,152.138 44.756,154.409 46.110 C 156.680 47.464,160.280 49.707,162.409 51.094 C 164.538 52.482,166.783 53.915,167.398 54.279 C 169.642 55.609,171.995 57.299,173.340 58.548 C 174.245 59.389,175.187 60.065,176.090 60.521 C 177.102 61.032,179.813 63.067,186.405 68.262 L 195.347 75.311 197.760 75.462 C 204.781 75.902,205.185 75.726,212.735 68.945 C 222.505 60.172,251.611 41.676,270.538 32.214 C 289.905 22.532,311.957 15.023,333.763 10.685 C 344.947 8.460,375.861 5.562,382.710 6.097 C 388.194 6.525,392.400 9.672,393.298 14.022 C 393.463 14.824,393.485 18.676,393.394 31.312 L 393.277 47.570 391.903 61.419 C 389.647 84.165,388.750 90.787,386.640 100.293 C 384.737 108.866,378.001 131.624,375.765 137.032 C 368.853 153.759,364.212 162.879,359.305 169.376 C 357.590 171.647,354.839 175.448,353.190 177.823 L 350.194 182.141 343.191 189.257 C 339.339 193.172,336.138 196.324,336.076 196.262 C 335.694 195.880,335.604 192.255,335.885 188.543 C 336.566 179.555,336.058 177.955,332.788 178.778 C 331.048 179.216,330.605 180.151,330.232 184.172 C 327.420 214.477,311.039 248.775,284.795 279.308 C 267.624 299.285,253.885 309.398,234.108 316.618 L 226.754 319.302 220.159 320.597 L 213.563 321.892 203.548 321.892 C 191.425 321.892,188.345 321.617,180.473 319.831 C 155.404 314.141,135.754 301.598,116.186 278.796 C 100.352 260.345,88.961 240.720,80.005 216.459 C 75.718 204.849,75.589 204.343,73.122 189.615 C 71.192 178.090,71.076 177.590,70.141 176.717 C 68.834 175.498,65.807 176.771,65.446 178.692 C 65.369 179.101,65.709 182.410,66.405 188.045 C 67.596 197.671,67.595 197.503,66.461 197.787 C 65.740 197.968,65.379 197.670,59.494 192.026 C 50.104 183.021,47.400 179.770,39.437 167.914 C 34.802 161.012,28.831 148.927,24.859 138.409 C 24.323 136.989,23.393 134.781,22.791 133.502 C 22.142 132.121,21.481 130.374,21.164 129.201 C 20.870 128.115,20.367 126.374,20.045 125.333 C 12.566 101.149,7.993 73.536,6.696 44.731 C 6.399 38.135,6.366 16.042,6.651 14.624 C 7.734 9.234,12.707 5.720,18.925 5.952 C 20.013 5.992,22.955 6.104,25.462 6.200 M201.677 235.301 C 201.843 235.345,202.114 235.345,202.280 235.301 C 202.445 235.258,202.310 235.223,201.978 235.223 C 201.647 235.223,201.512 235.258,201.677 235.301 M232.470 236.559 C 232.470 236.890,232.505 237.026,232.549 236.860 C 232.592 236.695,232.592 236.424,232.549 236.258 C 232.505 236.092,232.470 236.228,232.470 236.559 M169.330 237.247 C 169.330 237.578,169.366 237.714,169.409 237.548 C 169.452 237.383,169.452 237.112,169.409 236.946 C 169.366 236.781,169.330 236.916,169.330 237.247 M144.403 259.620 C 138.708 260.747,138.062 270.096,143.538 272.145 C 147.825 273.749,151.656 270.840,151.656 265.978 C 151.656 261.541,148.533 258.803,144.403 259.620 M254.624 259.774 C 251.061 260.862,249.236 265.295,250.900 268.818 C 253.304 273.906,259.329 273.889,261.716 268.789 C 264.012 263.883,259.586 258.259,254.624 259.774 " stroke="none" fill="#ecd3bb" fill-rule="evenodd"></path><path id="path4" d="M295.273 219.527 C 295.273 219.953,295.306 220.127,295.347 219.914 C 295.388 219.701,295.388 219.353,295.347 219.140 C 295.306 218.927,295.273 219.101,295.273 219.527 M163.656 242.016 C 163.916 242.055,164.342 242.055,164.602 242.016 C 164.862 241.976,164.649 241.944,164.129 241.944 C 163.609 241.944,163.396 241.976,163.656 242.016 " stroke="none" fill="#b29f8f" fill-rule="evenodd"></path></g></svg>